<svg xmlns="http://www.w3.org/2000/svg" viewBox="0 0 64 64">
	<path d="M32 14c-6.6 0-12 5.4-12 12v12c0 6.6 5.4 12 12 12s12-5.4 12-12V26c0-6.6-5.4-12-12-12z" fill="#C8961E" opacity="0.95"/>
	<path d="M20 36c-2 3-5 5-8 6l2 4c5-2 8-5 10-9l-4-1z" fill="#C8961E" opacity="0.7"/>
	<path d="M44 36c2 3 5 5 8 6l-2 4c-5-2-8-5-10-9l4-1z" fill="#C8961E" opacity="0.7"/>
	<path d="M24 32c-2 2-5 4-7 6l3 3c3-2 5-5 6-8l-2-1z" fill="#C8961E" opacity="0.5"/>
	<path d="M40 32c2 2 5 4 7 6l-3 3c-3-2-5-5-6-8l2-1z" fill="#C8961E" opacity="0.5"/>
	<circle cx="32" cy="26" r="3.5" fill="#4A3520"/>
</svg>
